<svg width="71" height="34" viewBox="0 0 71 34" fill="none" xmlns="http://www.w3.org/2000/svg">
<g filter="url(#filter0_b_18_149)">
<rect x="0.0958252" width="70.1972" height="34" rx="17" fill="url(#paint0_linear_18_149)"/>
</g>
<rect x="4.10706" y="4" width="62" height="26" rx="13" fill="white"/>
<path d="M14.9811 20.18V18.248L19.4051 11.92H22.0791V18.108H23.2271V20.18H22.0791V22H19.6851V20.18H14.9811ZM19.8531 14.552L17.5011 18.108H19.8531V14.552ZM26.3177 22.112C25.8977 22.112 25.5524 21.9907 25.2817 21.748C25.0204 21.496 24.8897 21.188 24.8897 20.824C24.8897 20.4507 25.0204 20.138 25.2817 19.886C25.5524 19.634 25.8977 19.508 26.3177 19.508C26.7284 19.508 27.0644 19.634 27.3257 19.886C27.5964 20.138 27.7317 20.4507 27.7317 20.824C27.7317 21.188 27.5964 21.496 27.3257 21.748C27.0644 21.9907 26.7284 22.112 26.3177 22.112ZM31.1509 16.512C30.2735 16.0453 29.8349 15.3127 29.8349 14.314C29.8349 13.81 29.9655 13.3527 30.2269 12.942C30.4882 12.522 30.8849 12.1907 31.4169 11.948C31.9489 11.696 32.6022 11.57 33.3769 11.57C34.1515 11.57 34.8002 11.696 35.3229 11.948C35.8549 12.1907 36.2516 12.522 36.5129 12.942C36.7742 13.3527 36.9049 13.81 36.9049 14.314C36.9049 14.818 36.7836 15.2567 36.5409 15.63C36.3076 16.0033 35.9902 16.2973 35.5889 16.512C36.0929 16.7547 36.4802 17.0907 36.7509 17.52C37.0216 17.94 37.1569 18.4347 37.1569 19.004C37.1569 19.6667 36.9889 20.2407 36.6529 20.726C36.3169 21.202 35.8596 21.566 35.2809 21.818C34.7116 22.07 34.0769 22.196 33.3769 22.196C32.6769 22.196 32.0376 22.07 31.4589 21.818C30.8895 21.566 30.4369 21.202 30.1009 20.726C29.7649 20.2407 29.5969 19.6667 29.5969 19.004C29.5969 18.4253 29.7322 17.926 30.0029 17.506C30.2735 17.0767 30.6562 16.7453 31.1509 16.512ZM34.5809 14.678C34.5809 14.2953 34.4689 14.0013 34.2449 13.796C34.0302 13.5813 33.7409 13.474 33.3769 13.474C33.0129 13.474 32.7189 13.5813 32.4949 13.796C32.2802 14.0107 32.1729 14.3093 32.1729 14.692C32.1729 15.056 32.2849 15.3453 32.5089 15.56C32.7329 15.7653 33.0222 15.868 33.3769 15.868C33.7316 15.868 34.0209 15.7607 34.2449 15.546C34.4689 15.3313 34.5809 15.042 34.5809 14.678ZM33.3769 17.548C32.9382 17.548 32.5836 17.6693 32.3129 17.912C32.0422 18.1453 31.9069 18.472 31.9069 18.892C31.9069 19.284 32.0376 19.606 32.2989 19.858C32.5696 20.11 32.9289 20.236 33.3769 20.236C33.8249 20.236 34.1749 20.11 34.4269 19.858C34.6882 19.606 34.8189 19.284 34.8189 18.892C34.8189 18.4813 34.6836 18.1547 34.4129 17.912C34.1516 17.6693 33.8062 17.548 33.3769 17.548Z" fill="#2F2105"/>
<path d="M48.5669 11.536C48.7536 11.0437 49.46 11.0437 49.6473 11.536L50.8548 14.8808C50.8969 14.9898 50.9711 15.0834 51.0675 15.1493C51.1639 15.2153 51.2781 15.2504 51.3949 15.2501H54.3624C54.9107 15.2501 55.1498 15.9326 54.7188 16.2668L52.6071 18.1667C52.5125 18.2395 52.4434 18.3403 52.4096 18.4547C52.3759 18.5692 52.3793 18.6913 52.4193 18.8037L53.1904 22.0722C53.3783 22.5972 52.7704 23.0481 52.3108 22.7249L49.4425 20.9049C49.3443 20.8359 49.2272 20.7988 49.1071 20.7988C48.987 20.7988 48.8699 20.8359 48.7717 20.9049L45.9034 22.7249C45.4444 23.0481 44.8359 22.5966 45.0238 22.0722L45.7949 18.8037C45.8349 18.6913 45.8383 18.5692 45.8046 18.4547C45.7708 18.3403 45.7017 18.2395 45.6071 18.1667L43.4954 16.2668C43.0638 15.9326 43.3041 15.2501 43.8513 15.2501H46.8187C46.9355 15.2505 47.0497 15.2154 47.1462 15.1494C47.2426 15.0835 47.3168 14.9898 47.3589 14.8808L48.5663 11.536H48.5669Z" fill="#FFD057" stroke="#FFD057" stroke-linecap="round" stroke-linejoin="round"/>
<defs>
<filter id="filter0_b_18_149" x="-3.90417" y="-4" width="78.1971" height="42" filterUnits="userSpaceOnUse" color-interpolation-filters="sRGB">
<feFlood flood-opacity="0" result="BackgroundImageFix"/>
<feGaussianBlur in="BackgroundImage" stdDeviation="2"/>
<feComposite in2="SourceAlpha" operator="in" result="effect1_backgroundBlur_18_149"/>
<feBlend mode="normal" in="SourceGraphic" in2="effect1_backgroundBlur_18_149" result="shape"/>
</filter>
<linearGradient id="paint0_linear_18_149" x1="35.1944" y1="0" x2="35.1944" y2="34" gradientUnits="userSpaceOnUse">
<stop stop-color="white" stop-opacity="0.7"/>
<stop offset="1" stop-color="white" stop-opacity="0.4"/>
</linearGradient>
</defs>
</svg>
